<svg xmlns="http://www.w3.org/2000/svg" viewBox="0 0 77.70313 68.99222"><defs><style>.cls-1{fill:#e5ecf4;}.cls-2{fill:#2c3e50;}</style></defs><g id="Layer_2" data-name="Layer 2"><g id="Login"><rect class="cls-1" x="11.42109" width="55.47506" height="55.43637" rx="0.3"/><path class="cls-2" d="M36.95791,16.285H41.3593a0,0,0,0,1,0,0V43.68559a.3.3,0,0,1-.3.3H37.25791a.3.3,0,0,1-.3-.3V16.285a0,0,0,0,1,0,0Z"/><rect class="cls-2" x="37.24579" y="-6.77138" width="4.49068" height="41.62216" rx="0.3279" transform="translate(25.11891 53.53083) rotate(-90)"/><rect class="cls-2" x="46.08816" y="20.86276" width="4.40139" height="23.12283" rx="0.3275"/><rect class="cls-2" x="27.80618" y="20.85985" width="4.40139" height="23.12573" rx="0.3275"/><path class="cls-1" d="M6.855,61.91605H4.52881v6.92871H2.6582V61.91605H.33252V60.25492H6.855Z" transform="translate(-0.33252)"/><path class="cls-1" d="M14.57129,68.84476H12.62646l-.61523-2.043H9.144l-.61523,2.043H6.6333l2.83057-8.58984h2.31347Zm-3.01514-3.63037-.52929-1.78467-.43067-1.47656h-.06152l-.41846,1.47656-.5293,1.78467Z" transform="translate(-0.33252)"/><path class="cls-1" d="M15.76514,68.84476V60.25492H19.937a2.243,2.243,0,0,1,1.66113.603,2.16035,2.16035,0,0,1,.603,1.59961,2.21809,2.21809,0,0,1-.21533,1.05224,1.35033,1.35033,0,0,1-.57813.58447,2.00731,2.00731,0,0,1-.80615.20948v.07373a2.026,2.026,0,0,1,.64014.11084,2.05552,2.05552,0,0,1,.62744.34424,1.72355,1.72355,0,0,1,.48.62158,2.178,2.178,0,0,1,.18457.9414,2.62269,2.62269,0,0,1-.28906,1.231,2.35237,2.35237,0,0,1-.7876.88574,2.00507,2.00507,0,0,1-1.13867.33252Zm1.8706-7.01465v1.94434h1.8584a.91427.91427,0,0,0,.42432-.09228.61865.61865,0,0,0,.271-.271.91132.91132,0,0,0,.09229-.42432v-.36914a.91479.91479,0,0,0-.09229-.4248.62.62,0,0,0-.271-.27051.91427.91427,0,0,0-.42432-.09229Zm0,3.47022v1.96924h2.15332a.9148.9148,0,0,0,.42481-.09229.66673.66673,0,0,0,.27685-.26465.8329.8329,0,0,0,.09864-.41845v-.41846a.83424.83424,0,0,0-.09864-.41846.66685.66685,0,0,0-.27685-.26465.91492.91492,0,0,0-.42481-.09228Z" transform="translate(-0.33252)"/><path class="cls-1" d="M23.92432,60.25492h1.82129V65.522a2.81817,2.81817,0,0,0,.1538,1.00293,1.15551,1.15551,0,0,0,.49854.603,1.756,1.756,0,0,0,.89844.20312,1.7214,1.7214,0,0,0,.89209-.20312,1.19735,1.19735,0,0,0,.49853-.603,2.7231,2.7231,0,0,0,.16016-1.00293V60.25492h1.82129v5.07031a5.54356,5.54356,0,0,1-.33252,2.07959,2.27957,2.27957,0,0,1-1.0708,1.2002,4.25328,4.25328,0,0,1-1.96875.3872,4.25408,4.25408,0,0,1-1.96924-.3872,2.28351,2.28351,0,0,1-1.0708-1.2002,5.55423,5.55423,0,0,1-.332-2.07959Z" transform="translate(-0.33252)"/><path class="cls-1" d="M37.6582,68.84476h-5.144V60.25492h1.87061v6.92822H37.6582Z" transform="translate(-0.33252)"/><path class="cls-1" d="M46.50684,68.84476H44.562l-.61523-2.043H41.07959l-.61523,2.043H38.56885l2.83056-8.58984h2.31348ZM43.4917,65.21439l-.5293-1.78467-.43066-1.47656h-.06153l-.41845,1.47656-.5293,1.78467Z" transform="translate(-0.33252)"/><path class="cls-1" d="M49.57129,65.69437v3.15039H47.70068V60.25492h4.07325a2.64716,2.64716,0,0,1,1.37841.34424,2.361,2.361,0,0,1,.89844.96,3.08108,3.08108,0,0,1,.31983,1.43994,2.93674,2.93674,0,0,1-.3877,1.52,2.208,2.208,0,0,1-1.17529.95361l1.686,3.37207H52.41406L50.9126,65.69437Zm0-1.57519H51.54a1.06062,1.06062,0,0,0,.48-.09864.72046.72046,0,0,0,.30762-.28906.90189.90189,0,0,0,.11084-.46142v-.54151a.893.893,0,0,0-.11084-.46777.73407.73407,0,0,0-.30762-.2832,1.06728,1.06728,0,0,0-.48-.09815H49.57129Z" transform="translate(-0.33252)"/><path class="cls-1" d="M59.74854,68.84476H55.6626V67.3555h1.10791V61.74369H55.6626V60.25492h4.08594v1.48877H58.64111V67.3555h1.10743Z" transform="translate(-0.33252)"/><path class="cls-1" d="M61.26221,60.25492H63.0835V65.522a2.81817,2.81817,0,0,0,.1538,1.00293,1.15551,1.15551,0,0,0,.49854.603,1.756,1.756,0,0,0,.89844.20312,1.7214,1.7214,0,0,0,.89209-.20312,1.19735,1.19735,0,0,0,.49853-.603,2.7231,2.7231,0,0,0,.16016-1.00293V60.25492h1.82129v5.07031a5.54356,5.54356,0,0,1-.33252,2.07959A2.27957,2.27957,0,0,1,66.603,68.605a5.2,5.2,0,0,1-3.938,0,2.28351,2.28351,0,0,1-1.0708-1.2002,5.55423,5.55423,0,0,1-.332-2.07959Z" transform="translate(-0.33252)"/><path class="cls-1" d="M69.85205,68.84476V60.25492H71.8335L72.978,62.44535l.95947,1.83349h.0249l.94776-1.83349L76.042,60.25492h1.99365v8.58984H76.27588V63.20853h-.03662l-.62793,1.25489-1.67383,3.04-1.63672-3.02734-.65185-1.354h-.03711v5.72265Z" transform="translate(-0.33252)"/></g></g></svg>